<svg xmlns="http://www.w3.org/2000/svg"><symbol id="sprite-compass" viewBox="0 0 512 512"><title/><path d="M256 0C114.615 0 0 114.615 0 256s114.615 256 256 256 256-114.615 256-256S397.385 0 256 0zM48 256c0-114.875 93.125-208 208-208 54.787 0 104.616 21.193 141.767 55.814L192 192l-88.186 205.767C69.193 360.616 48 310.787 48 256zm244.583 36.583l-128.041 54.875 54.875-128.041 73.166 73.166zM256 464c-54.787 0-104.617-21.193-141.766-55.814L320 320l88.186-205.766C442.807 151.383 464 201.213 464 256c0 114.875-93.125 208-208 208z"/></symbol><symbol id="sprite-connection" viewBox="0 0 640 512"><title/><path d="M320 288c52.935 0 100.935 21.533 135.701 56.299l-45.234 45.234C387.29 366.355 355.289 352 320 352s-67.289 14.355-90.467 37.533l-45.234-45.234C219.065 309.533 267.065 288 320 288zM93.726 253.726C154.166 193.286 234.525 160 320 160s165.834 33.286 226.275 93.726L501.02 298.98C452.667 250.628 388.38 224 320 224c-68.381 0-132.667 26.628-181.019 74.981l-45.255-45.255zM494.392 67.219c53.351 22.566 101.258 54.864 142.391 95.998l-45.254 45.254C519.001 135.943 422.569 96 320 96c-102.57 0-199 39.943-271.529 112.471L3.216 163.216c41.134-41.133 89.041-73.431 142.392-95.997C200.86 43.85 259.534 32 320 32s119.139 11.85 174.392 35.219zM288 448c0-17.673 14.327-32 32-32s32 14.327 32 32c0 17.673-14.327 32-32 32s-32-14.327-32-32z"/></symbol><symbol id="sprite-fire" viewBox="0 0 512 512"><title/><path d="M160.504 512c-34.123-71.004-15.951-111.689 10.275-150.022 28.72-41.978 36.122-83.533 36.122-83.533s22.577 29.35 13.546 75.254c39.886-44.4 47.412-115.14 41.391-142.232C351.995 274.473 390.526 410.895 338.599 512c276.186-156.266 68.699-390.086 32.577-416.425 12.041 26.338 14.324 70.925-10 92.563C320 32 218.19 0 218.19 0c12.041 80.522-43.648 168.572-97.348 234.365-1.887-32.108-3.891-54.264-20.775-84.99-3.79 58.328-48.366 105.874-60.437 164.314C23.279 392.832 51.878 450.779 160.504 512z"/></symbol><symbol id="sprite-open-space-alpinism" viewBox="0 0 142.4 59.53"><defs><style/></defs><title>clear-view-escapes</title><path class="cls" d="M26.494 30.352h-8.22L16.838 35H10.43l9.126-24.883h5.639L34.39 35h-6.443l-1.453-4.648zm-6.785-4.632h5.349l-2.683-8.63-2.666 8.63zM42.012 35h-5.777V8.75h5.777V35zm20.712-9.109q0 4.307-1.939 6.879-1.94 2.572-5.238 2.572-2.547 0-4.187-1.863v8.63H45.6v-25.6h5.384l.171 1.709q1.657-2.051 4.358-2.051 3.418 0 5.315 2.521 1.896 2.52 1.896 6.93v.273zm-5.759-.359q0-4.922-2.871-4.922-2.051 0-2.734 1.47v7.28q.752 1.538 2.768 1.538 2.752 0 2.837-4.751v-.615zM71.338 35h-5.777V16.509h5.777V35zM65.22 11.741q0-1.231.888-2.017.889-.786 2.307-.786 1.419 0 2.308.786.888.786.888 2.017 0 1.23-.888 2.016-.889.786-2.308.786-1.418 0-2.307-.786-.888-.786-.888-2.016zm14.953 4.768l.188 2.17q1.914-2.512 5.281-2.512 2.888 0 4.315 1.726 1.427 1.726 1.478 5.195V35h-5.776V23.328q0-1.402-.564-2.06-.564-.658-2.051-.658-1.692 0-2.512 1.333V35h-5.759V16.509h5.4zM100.698 35h-5.776V16.509h5.776V35zM94.58 11.741q0-1.231.889-2.017.888-.786 2.307-.786 1.418 0 2.307.786t.889 2.017q0 1.23-.889 2.016t-2.307.786q-1.419 0-2.307-.786-.889-.786-.889-2.016zm19.346 18.064q0-.735-.769-1.18-.769-.444-2.923-.922-2.153-.479-3.554-1.256-1.402-.778-2.137-1.889-.735-1.111-.735-2.546 0-2.547 2.103-4.196 2.102-1.649 5.502-1.649 3.658 0 5.879 1.658 2.222 1.657 2.222 4.358h-5.776q0-2.222-2.342-2.222-.905 0-1.521.504-.615.504-.615 1.256 0 .769.752 1.248.752.478 2.401.786 1.649.308 2.897.735 4.17 1.435 4.17 5.144 0 2.529-2.247 4.118-2.248 1.59-5.82 1.59-2.375 0-4.238-.855-1.863-.854-2.905-2.324-1.043-1.47-1.043-3.093h5.384q.034 1.282.854 1.871.821.59 2.102.59 1.179 0 1.769-.479.59-.478.59-1.247zm13.689-13.296l.188 2.17q1.965-2.512 5.28-2.512 3.504 0 4.734 2.786 1.88-2.786 5.435-2.786 5.622 0 5.776 6.802V35h-5.776V23.328q0-1.419-.479-2.068-.478-.65-1.743-.65-1.709 0-2.546 1.521l.017.24V35h-5.777V23.362q0-1.453-.461-2.102-.461-.65-1.76-.65-1.658 0-2.529 1.521V35h-5.76V16.509h5.401z" transform="translate(-8.41 16.187)"/><path class="cls" d="M22.551 13.262q0 2.09-.723 3.667-.722 1.577-2.065 2.422-1.343.844-3.091.844-1.729 0-3.081-.844-1.353-.845-2.09-2.408-.737-1.562-.747-3.603v-.801q0-2.08.737-3.672.738-1.592 2.08-2.436 1.343-.845 3.081-.845 1.739 0 3.082.835 1.342.835 2.075 2.402.732 1.568.742 3.648v.791m-2.471-.742q0-2.364-.893-3.624-.894-1.259-2.535-1.259-1.601 0-2.504 1.255-.904 1.254-.923 3.549v.821q0 2.343.913 3.623.913 1.279 2.534 1.279 1.641 0 2.524-1.25.884-1.25.884-3.652v-.742zm13.955 2.304q0 2.451-1.113 3.911t-2.988 1.46q-1.739 0-2.783-1.142v5.01h-2.374V9.434h2.188l.098 1.074q1.045-1.27 2.841-1.27 1.934 0 3.033 1.441 1.098 1.44 1.098 3.999v.146m-2.363-.205q0-1.582-.63-2.51-.63-.927-1.802-.927-1.455 0-2.089 1.201v4.687q.644 1.231 2.109 1.231 1.133 0 1.772-.913.64-.913.64-2.769zm9.023 5.576q-2.255 0-3.657-1.421-1.401-1.42-1.401-3.784v-.293q0-1.582.61-2.827.611-1.245 1.714-1.938 1.104-.694 2.461-.694 2.158 0 3.335 1.377t1.177 3.897v.957h-6.905q.108 1.308.874 2.07.767.762 1.929.762 1.631 0 2.656-1.319l1.28 1.221q-.635.947-1.695 1.47-1.059.522-2.378.522m-.283-9.052q-.976 0-1.577.683-.6.684-.767 1.904h4.522v-.175q-.078-1.192-.635-1.802-.556-.61-1.543-.61zm8.565-1.709l.068 1.22q1.172-1.416 3.076-1.416 3.301 0 3.36 3.78V20h-2.373v-6.846q0-1.006-.435-1.489-.435-.483-1.421-.483-1.435 0-2.139 1.298V20H46.74V9.434h2.237zm21.562 6.904q0-.938-.659-1.445-.659-.508-2.378-1.026-1.719-.517-2.734-1.152-1.944-1.221-1.944-3.184 0-1.718 1.402-2.832 1.401-1.113 3.637-1.113 1.485 0 2.647.547 1.162.547 1.826 1.557Q73 8.701 73 9.932h-2.461q0-1.114-.698-1.744-.698-.629-1.997-.629-1.211 0-1.88.517-.669.518-.669 1.445 0 .782.723 1.304.722.523 2.383 1.016 1.66.493 2.666 1.123 1.005.63 1.474 1.445.469.816.469 1.909 0 1.778-1.362 2.828-1.363 1.049-3.697 1.049-1.543 0-2.837-.571-1.294-.571-2.011-1.577-.718-1.006-.718-2.344h2.471q0 1.211.8 1.875.801.664 2.295.664 1.289 0 1.939-.522.649-.523.649-1.382zm13.662-1.514q0 2.451-1.113 3.911t-2.988 1.46q-1.739 0-2.783-1.142v5.01h-2.374V9.434h2.188l.098 1.074q1.045-1.27 2.841-1.27 1.934 0 3.033 1.441 1.098 1.44 1.098 3.999v.146m-2.363-.205q0-1.582-.63-2.51-.63-.927-1.802-.927-1.455 0-2.089 1.201v4.687q.644 1.231 2.109 1.231 1.133 0 1.772-.913.64-.913.64-2.769zM92.522 20q-.157-.303-.274-.986-1.133 1.181-2.773 1.181-1.592 0-2.598-.908-1.006-.908-1.006-2.246 0-1.689 1.255-2.593 1.255-.903 3.589-.903h1.455v-.693q0-.821-.459-1.314-.459-.493-1.396-.493-.811 0-1.329.405-.517.405-.517 1.03h-2.373q0-.869.576-1.626.576-.756 1.567-1.186.992-.43 2.212-.43 1.856 0 2.959.933 1.104.933 1.133 2.622v4.766q0 1.425.4 2.275V20h-2.421m-2.608-1.709q.703 0 1.323-.342.621-.342.933-.918v-1.992h-1.279q-1.319 0-1.983.459-.664.459-.664 1.299 0 .683.454 1.089.454.405 1.216.405zm11.455.01q.889 0 1.475-.518.586-.517.625-1.279h2.236q-.039.986-.615 1.841-.576.854-1.563 1.352-.986.498-2.128.498-2.217 0-3.516-1.435-1.299-1.436-1.299-3.965v-.244q0-2.412 1.289-3.863 1.289-1.45 3.516-1.45 1.885 0 3.071 1.099 1.187 1.099 1.245 2.886h-2.236q-.039-.909-.62-1.494-.581-.586-1.48-.586-1.152 0-1.777.835t-.635 2.534v.381q0 1.718.62 2.563.62.845 1.792.845zm10.782 1.894q-2.256 0-3.658-1.421-1.401-1.42-1.401-3.784v-.293q0-1.582.61-2.827.611-1.245 1.714-1.938 1.104-.694 2.461-.694 2.158 0 3.335 1.377t1.177 3.897v.957h-6.904q.107 1.308.874 2.07.766.762 1.928.762 1.631 0 2.656-1.319l1.28 1.221q-.635.947-1.695 1.47-1.059.522-2.377.522m-.284-9.052q-.976 0-1.577.683-.6.684-.766 1.904h4.521v-.175q-.078-1.192-.635-1.802-.556-.61-1.543-.61z"/></symbol><symbol id="sprite-trophy" viewBox="0 0 512 512"><title/><path d="M416 96V32H96v64H0v64c0 53.019 42.979 96 96 96a95.946 95.946 0 0 0 28.81-4.401c23.087 33.004 58.304 56.898 99.19 65.198V416h-32c-35.347 0-64 28.653-64 64h256c0-35.347-28.653-64-64-64h-32v-99.203c40.886-8.3 76.103-32.193 99.19-65.198A95.946 95.946 0 0 0 416 256c53.021 0 96-42.981 96-96V96h-96zM96 218c-31.981 0-58-26.019-58-58v-32h58v32c0 20.093 3.715 39.316 10.477 57.034A58.078 58.078 0 0 1 96 218zm378-58c0 31.981-26.019 58-58 58-3.578 0-7.076-.343-10.477-.966C412.285 199.316 416 180.093 416 160v-32h58v32z"/></symbol></svg>