<svg id="Layer_1" data-name="Layer 1" xmlns="http://www.w3.org/2000/svg" width="142.4" height="59.53" viewBox="0 0 142.4 59.53"><defs><style>.cls-1{fill:#fff;}</style></defs><title>clear-view-escapes</title>
<path class="cls" d="M 26.494 30.352 L 18.274 30.352 L 16.838 35 L 10.43 35 L 19.556 10.117 L 25.195 10.117 L 34.39 35 L 27.947 35 L 26.494 30.352 Z M 19.709001541137695 25.71996307373047 L 25.058002471923828 25.71996307373047 L 22.375001907348633 17.089963912963867 L 19.709001541137695 25.71996307373047 Z M 42.01200485229492 34.999961853027344 L 36.23500442504883 34.999961853027344 L 36.23500442504883 8.749963760375977 L 42.01200485229492 8.749963760375977 L 42.01200485229492 34.999961853027344 Z M 62.724002838134766 25.89096450805664 Q 62.724002838134766 30.19796371459961 60.785003662109375 32.769962310791016 Q 58.84500503540039 35.34196090698242 55.54700469970703 35.34196090698242 Q 53.000003814697266 35.34196090698242 51.36000442504883 33.47896194458008 L 51.36000442504883 42.10896301269531 L 45.60000228881836 42.10896301269531 L 45.60000228881836 16.50896453857422 L 50.984004974365234 16.50896453857422 L 51.15500259399414 18.21796417236328 Q 52.81200408935547 16.166963577270508 55.513004302978516 16.166963577270508 Q 58.93100357055664 16.166963577270508 60.8280029296875 18.687963485717773 Q 62.724002838134766 21.207963943481445 62.724002838134766 25.617963790893555 L 62.724002838134766 25.89096450805664 Z M 56.965003967285156 25.531963348388672 Q 56.965003967285156 20.60996437072754 54.0940055847168 20.60996437072754 Q 52.04300308227539 20.60996437072754 51.36000442504883 22.07996368408203 L 51.36000442504883 29.35996437072754 Q 52.112003326416016 30.897964477539062 54.12800216674805 30.897964477539062 Q 56.8800048828125 30.897964477539062 56.965003967285156 26.146963119506836 L 56.965003967285156 25.531963348388672 Z M 71.33799743652344 34.999961853027344 L 65.56099700927734 34.999961853027344 L 65.56099700927734 16.50896453857422 L 71.33799743652344 16.50896453857422 L 71.33799743652344 34.999961853027344 Z M 65.22000122070312 11.74096393585205 Q 65.22000122070312 10.509963989257812 66.10800170898438 9.723963737487793 Q 66.99700164794922 8.937963485717773 68.41500091552734 8.937963485717773 Q 69.83399963378906 8.937963485717773 70.7229995727539 9.723963737487793 Q 71.61100006103516 10.509963989257812 71.61100006103516 11.74096393585205 Q 71.61100006103516 12.970963478088379 70.7229995727539 13.756963729858398 Q 69.83399963378906 14.542963981628418 68.41500091552734 14.542963981628418 Q 66.99700164794922 14.542963981628418 66.10800170898438 13.756963729858398 Q 65.22000122070312 12.970963478088379 65.22000122070312 11.74096393585205 Z M 80.1729965209961 16.50896453857422 L 80.36100006103516 18.678964614868164 Q 82.2750015258789 16.166963577270508 85.64199829101562 16.166963577270508 Q 88.52999877929688 16.166963577270508 89.95700073242188 17.892963409423828 Q 91.38400268554688 19.61896324157715 91.43499755859375 23.087963104248047 L 91.43499755859375 34.999961853027344 L 85.65899658203125 34.999961853027344 L 85.65899658203125 23.32796287536621 Q 85.65899658203125 21.92596435546875 85.09500122070312 21.267963409423828 Q 84.53099822998047 20.60996437072754 83.04399871826172 20.60996437072754 Q 81.35199737548828 20.60996437072754 80.53199768066406 21.942964553833008 L 80.53199768066406 34.999961853027344 L 74.77300262451172 34.999961853027344 L 74.77300262451172 16.50896453857422 L 80.1729965209961 16.50896453857422 Z M 100.697998046875 34.999961853027344 L 94.9219970703125 34.999961853027344 L 94.9219970703125 16.50896453857422 L 100.697998046875 16.50896453857422 L 100.697998046875 34.999961853027344 Z M 94.58000183105469 11.74096393585205 Q 94.58000183105469 10.509963989257812 95.46900177001953 9.723963737487793 Q 96.35700225830078 8.937963485717773 97.7760009765625 8.937963485717773 Q 99.19400024414062 8.937963485717773 100.08300018310547 9.723963737487793 Q 100.97200012207031 10.509963989257812 100.97200012207031 11.74096393585205 Q 100.97200012207031 12.970963478088379 100.08300018310547 13.756963729858398 Q 99.19400024414062 14.542963981628418 97.7760009765625 14.542963981628418 Q 96.35700225830078 14.542963981628418 95.46900177001953 13.756963729858398 Q 94.58000183105469 12.970963478088379 94.58000183105469 11.74096393585205 Z M 113.9260025024414 29.804964065551758 Q 113.9260025024414 29.069963455200195 113.15699768066406 28.624963760375977 Q 112.38800048828125 28.18096351623535 110.23400115966797 27.70296287536621 Q 108.08100128173828 27.22396469116211 106.68000030517578 26.446964263916016 Q 105.27799987792969 25.668964385986328 104.54299926757812 24.557964324951172 Q 103.80799865722656 23.446964263916016 103.80799865722656 22.011962890625 Q 103.80799865722656 19.464963912963867 105.91100311279297 17.815963745117188 Q 108.01300048828125 16.166963577270508 111.41300201416016 16.166963577270508 Q 115.07099914550781 16.166963577270508 117.29199981689453 17.82496452331543 Q 119.51399993896484 19.481964111328125 119.51399993896484 22.182964324951172 L 113.73799896240234 22.182964324951172 Q 113.73799896240234 19.96096420288086 111.39600372314453 19.96096420288086 Q 110.49099731445312 19.96096420288086 109.875 20.464963912963867 Q 109.26000213623047 20.968963623046875 109.26000213623047 21.720964431762695 Q 109.26000213623047 22.48996353149414 110.01200103759766 22.968963623046875 Q 110.76399993896484 23.446964263916016 112.41300201416016 23.754962921142578 Q 114.06199645996094 24.062963485717773 115.30999755859375 24.48996353149414 Q 119.4800033569336 25.924962997436523 119.4800033569336 29.63396453857422 Q 119.4800033569336 32.162960052490234 117.23300170898438 33.75196075439453 Q 114.98500061035156 35.34196090698242 111.41300201416016 35.34196090698242 Q 109.03800201416016 35.34196090698242 107.17500305175781 34.486961364746094 Q 105.31199645996094 33.63296127319336 104.2699966430664 32.162960052490234 Q 103.22699737548828 30.692964553833008 103.22699737548828 29.069963455200195 L 108.61100006103516 29.069963455200195 Q 108.6449966430664 30.35196304321289 109.46499633789062 30.940963745117188 Q 110.28600311279297 31.530963897705078 111.56700134277344 31.530963897705078 Q 112.74600219726562 31.530963897705078 113.33599853515625 31.051963806152344 Q 113.9260025024414 30.573963165283203 113.9260025024414 29.804964065551758 Z M 127.61499786376953 16.50896453857422 L 127.8030014038086 18.678964614868164 Q 129.76800537109375 16.166963577270508 133.08299255371094 16.166963577270508 Q 136.58700561523438 16.166963577270508 137.81700134277344 18.95296287536621 Q 139.69700622558594 16.166963577270508 143.2519989013672 16.166963577270508 Q 148.87399291992188 16.166963577270508 149.0279998779297 22.968963623046875 L 149.0279998779297 34.999961853027344 L 143.2519989013672 34.999961853027344 L 143.2519989013672 23.32796287536621 Q 143.2519989013672 21.908964157104492 142.7729949951172 21.259963989257812 Q 142.2949981689453 20.60996437072754 141.02999877929688 20.60996437072754 Q 139.3209991455078 20.60996437072754 138.48399353027344 22.130964279174805 L 138.50100708007812 22.37096405029297 L 138.50100708007812 34.999961853027344 L 132.7239990234375 34.999961853027344 L 132.7239990234375 23.361963272094727 Q 132.7239990234375 21.908964157104492 132.26300048828125 21.259963989257812 Q 131.802001953125 20.60996437072754 130.5030059814453 20.60996437072754 Q 128.84500122070312 20.60996437072754 127.9739990234375 22.130964279174805 L 127.9739990234375 34.999961853027344 L 122.21399688720703 34.999961853027344 L 122.21399688720703 16.50896453857422 L 127.61499786376953 16.50896453857422 Z" transform="matrix(1 0 0 1 -8.40951 16.1874)"></path><path class="cls" d="M22.551 13.262Q22.551 15.352 21.828 16.929Q21.106 18.506 19.763 19.351Q18.420 20.195 16.672 20.195Q14.943 20.195 13.591 19.351Q12.238 18.506 11.501 16.943Q10.764 15.381 10.754 13.340L10.754 12.539Q10.754 10.459 11.491 8.867Q12.229 7.275 13.571 6.431Q14.914 5.586 16.652 5.586Q18.391 5.586 19.734 6.421Q21.076 7.256 21.809 8.823Q22.541 10.391 22.551 12.471L22.551 13.262M20.080 12.520Q20.080 10.156 19.187 8.896Q18.293 7.637 16.652 7.637Q15.051 7.637 14.148 8.892Q13.244 10.146 13.225 12.441L13.225 13.262Q13.225 15.605 14.138 16.885Q15.051 18.164 16.672 18.164Q18.313 18.164 19.196 16.914Q20.080 15.664 20.080 13.262L20.080 12.520ZM34.035 14.824Q34.035 17.275 32.922 18.735Q31.809 20.195 29.934 20.195Q28.195 20.195 27.151 19.053L27.151 24.063L24.777 24.063L24.777 9.434L26.965 9.434L27.063 10.508Q28.108 9.238 29.904 9.238Q31.838 9.238 32.937 10.679Q34.035 12.119 34.035 14.678L34.035 14.824M31.672 14.619Q31.672 13.037 31.042 12.109Q30.412 11.182 29.240 11.182Q27.785 11.182 27.151 12.383L27.151 17.070Q27.795 18.301 29.260 18.301Q30.393 18.301 31.032 17.388Q31.672 16.475 31.672 14.619ZM40.695 20.195Q38.440 20.195 37.038 18.774Q35.637 17.354 35.637 14.990L35.637 14.697Q35.637 13.115 36.247 11.870Q36.858 10.625 37.961 9.932Q39.065 9.238 40.422 9.238Q42.580 9.238 43.757 10.615Q44.934 11.992 44.934 14.512L44.934 15.469L38.029 15.469Q38.137 16.777 38.903 17.539Q39.670 18.301 40.832 18.301Q42.463 18.301 43.488 16.982L44.768 18.203Q44.133 19.150 43.073 19.673Q42.014 20.195 40.695 20.195M40.412 11.143Q39.436 11.143 38.835 11.826Q38.235 12.510 38.068 13.730L42.590 13.730L42.590 13.555Q42.512 12.363 41.955 11.753Q41.399 11.143 40.412 11.143ZM48.977 9.434L49.045 10.654Q50.217 9.238 52.121 9.238Q55.422 9.238 55.481 13.018L55.481 20L53.108 20L53.108 13.154Q53.108 12.148 52.673 11.665Q52.238 11.182 51.252 11.182Q49.817 11.182 49.113 12.480L49.113 20L46.740 20L46.740 9.434L48.977 9.434ZM70.539 16.338Q70.539 15.400 69.880 14.893Q69.221 14.385 67.502 13.867Q65.783 13.350 64.768 12.715Q62.824 11.494 62.824 9.531Q62.824 7.813 64.226 6.699Q65.627 5.586 67.863 5.586Q69.348 5.586 70.510 6.133Q71.672 6.680 72.336 7.690Q73.000 8.701 73.000 9.932L70.539 9.932Q70.539 8.818 69.841 8.188Q69.143 7.559 67.844 7.559Q66.633 7.559 65.964 8.076Q65.295 8.594 65.295 9.521Q65.295 10.303 66.018 10.825Q66.740 11.348 68.401 11.841Q70.061 12.334 71.067 12.964Q72.072 13.594 72.541 14.409Q73.010 15.225 73.010 16.318Q73.010 18.096 71.648 19.146Q70.285 20.195 67.951 20.195Q66.408 20.195 65.114 19.624Q63.820 19.053 63.103 18.047Q62.385 17.041 62.385 15.703L64.856 15.703Q64.856 16.914 65.656 17.578Q66.457 18.242 67.951 18.242Q69.240 18.242 69.890 17.720Q70.539 17.197 70.539 16.338ZM84.201 14.824Q84.201 17.275 83.088 18.735Q81.975 20.195 80.100 20.195Q78.361 20.195 77.317 19.053L77.317 24.063L74.943 24.063L74.943 9.434L77.131 9.434L77.229 10.508Q78.274 9.238 80.070 9.238Q82.004 9.238 83.103 10.679Q84.201 12.119 84.201 14.678L84.201 14.824M81.838 14.619Q81.838 13.037 81.208 12.109Q80.578 11.182 79.406 11.182Q77.951 11.182 77.317 12.383L77.317 17.070Q77.961 18.301 79.426 18.301Q80.559 18.301 81.198 17.388Q81.838 16.475 81.838 14.619ZM92.522 20Q92.365 19.697 92.248 19.014Q91.115 20.195 89.475 20.195Q87.883 20.195 86.877 19.287Q85.871 18.379 85.871 17.041Q85.871 15.352 87.126 14.448Q88.381 13.545 90.715 13.545L92.170 13.545L92.170 12.852Q92.170 12.031 91.711 11.538Q91.252 11.045 90.315 11.045Q89.504 11.045 88.986 11.450Q88.469 11.855 88.469 12.480L86.096 12.480Q86.096 11.611 86.672 10.854Q87.248 10.098 88.239 9.668Q89.231 9.238 90.451 9.238Q92.307 9.238 93.410 10.171Q94.514 11.104 94.543 12.793L94.543 17.559Q94.543 18.984 94.943 19.834L94.943 20L92.522 20M89.914 18.291Q90.617 18.291 91.237 17.949Q91.858 17.607 92.170 17.031L92.170 15.039L90.891 15.039Q89.572 15.039 88.908 15.498Q88.244 15.957 88.244 16.797Q88.244 17.480 88.698 17.886Q89.152 18.291 89.914 18.291ZM101.369 18.301Q102.258 18.301 102.844 17.783Q103.430 17.266 103.469 16.504L105.705 16.504Q105.666 17.490 105.090 18.345Q104.514 19.199 103.527 19.697Q102.541 20.195 101.399 20.195Q99.182 20.195 97.883 18.760Q96.584 17.324 96.584 14.795L96.584 14.551Q96.584 12.139 97.873 10.688Q99.162 9.238 101.389 9.238Q103.274 9.238 104.460 10.337Q105.647 11.436 105.705 13.223L103.469 13.223Q103.430 12.314 102.849 11.729Q102.268 11.143 101.369 11.143Q100.217 11.143 99.592 11.978Q98.967 12.813 98.957 14.512L98.957 14.893Q98.957 16.611 99.577 17.456Q100.197 18.301 101.369 18.301ZM112.151 20.195Q109.895 20.195 108.493 18.774Q107.092 17.354 107.092 14.990L107.092 14.697Q107.092 13.115 107.702 11.870Q108.313 10.625 109.416 9.932Q110.520 9.238 111.877 9.238Q114.035 9.238 115.212 10.615Q116.389 11.992 116.389 14.512L116.389 15.469L109.485 15.469Q109.592 16.777 110.359 17.539Q111.125 18.301 112.287 18.301Q113.918 18.301 114.943 16.982L116.223 18.203Q115.588 19.150 114.528 19.673Q113.469 20.195 112.151 20.195M111.867 11.143Q110.891 11.143 110.290 11.826Q109.690 12.510 109.524 13.730L114.045 13.730L114.045 13.555Q113.967 12.363 113.410 11.753Q112.854 11.143 111.867 11.143Z"></path>
</svg>